<svg width="100" height="100" viewBox="0 0 100 100" fill="none" xmlns="http://www.w3.org/2000/svg">
<circle cx="50" cy="50" r="50" fill="#F2F2F2"/>
<path d="M54.0264 47.7488C55.5745 46.5474 56.5728 44.6695 56.5728 42.5625C56.5728 38.9439 53.6288 36 50.0103 36C46.3917 36 43.4478 38.9439 43.4478 42.5625C43.4478 44.6695 44.446 46.5474 45.9941 47.7488C42.2782 49.32 39.6641 53.0023 39.6641 57.2837V58.7699C39.6641 59.374 40.1537 59.8636 40.7578 59.8636H45.4208L49.2369 63.6798C49.4506 63.8932 49.7304 64 50.0103 64C50.2901 64 50.5702 63.8932 50.7836 63.6796L54.5997 59.8636H59.2627C59.8668 59.8636 60.3564 59.374 60.3564 58.7699V57.2837C60.3564 53.0023 57.7423 49.32 54.0264 47.7488ZM45.6353 42.5625C45.6353 40.1501 47.5978 38.1875 50.0103 38.1875C52.4227 38.1875 54.3853 40.1501 54.3853 42.5625C54.3853 44.9749 52.4227 46.9375 50.0103 46.9375C47.5978 46.9375 45.6353 44.9749 45.6353 42.5625ZM58.1689 57.6761H54.1466C53.8565 57.6761 53.5784 57.7913 53.3733 57.9966L50.0103 61.3594L46.6472 57.9966C46.4421 57.7913 46.164 57.6761 45.8739 57.6761H41.8516V57.2837C41.8516 52.785 45.5116 49.125 50.0103 49.125C54.5089 49.125 58.1689 52.785 58.1689 57.2837V57.6761Z" fill="#C4C4C4"/>
</svg>
