<svg width="14" height="14" viewBox="0 0 14 14" fill="none" xmlns="http://www.w3.org/2000/svg">
<path d="M1.45832 6.41668V4.66667C1.61932 4.66667 1.75 4.53599 1.75 4.37499C1.75 4.21399 1.61932 4.08331 1.45832 4.08331C0.653926 4.08331 0 4.73782 0 5.54167V6.125C0 6.60743 0.392574 7 0.875 7H1.45832C1.61932 7 1.75 6.86933 1.75 6.70832C1.75 6.54732 1.61932 6.41668 1.45832 6.41668Z" fill="#E94646"/>
<path d="M12.5417 4.08331C12.3807 4.08331 12.25 4.21399 12.25 4.37499C12.25 4.53599 12.3807 4.66667 12.5417 4.66667V6.41668C12.3807 6.41668 12.25 6.54735 12.25 6.70835C12.25 6.86935 12.3807 7 12.5417 7H13.125C13.6074 7 14 6.60743 14 6.125V5.54167C14 4.73782 13.3461 4.08331 12.5417 4.08331Z" fill="#E94646"/>
<path d="M4.95852 12.25C4.79752 12.25 4.66685 12.3807 4.66685 12.5417H2.91685C2.91685 12.3807 2.78617 12.25 2.62517 12.25C2.46417 12.25 2.3335 12.3807 2.3335 12.5417V13.125C2.3335 13.6074 2.72607 14 3.2085 14H4.3752C4.85762 14 5.2502 13.6074 5.2502 13.125V12.5417C5.2502 12.3807 5.11952 12.25 4.95852 12.25Z" fill="#E94646"/>
<path d="M11.375 12.25C11.214 12.25 11.0833 12.3807 11.0833 12.5417H9.33332C9.33332 12.3807 9.20265 12.25 9.04165 12.25C8.88065 12.25 8.75 12.3807 8.75 12.5417V13.125C8.75 13.6074 9.14257 14 9.625 14H10.7917C11.2741 14 11.6667 13.6074 11.6667 13.125V12.5417C11.6667 12.3807 11.536 12.25 11.375 12.25Z" fill="#E94646"/>
<path d="M11.3748 0H2.62483C1.8204 0 1.1665 0.6545 1.1665 1.45832V11.375C1.1665 12.1788 1.82043 12.8333 2.62483 12.8333H11.3748C12.1793 12.8333 12.8332 12.1788 12.8332 11.375V1.45832C12.8332 0.6545 12.1793 0 11.3748 0ZM3.7915 1.16668H10.2082C10.6906 1.16668 11.0832 1.55925 11.0832 2.04168C11.0832 2.5241 10.6906 2.91668 10.2082 2.91668H3.7915C3.30908 2.91668 2.9165 2.5241 2.9165 2.04168C2.9165 1.55925 3.30908 1.16668 3.7915 1.16668ZM3.7915 11.0833C3.30908 11.0833 2.9165 10.6908 2.9165 10.2083C2.9165 9.7259 3.30908 9.33332 3.7915 9.33332C4.27393 9.33332 4.6665 9.7259 4.6665 10.2083C4.6665 10.6908 4.2739 11.0833 3.7915 11.0833ZM10.2082 11.0833C9.72573 11.0833 9.33315 10.6908 9.33315 10.2083C9.33315 9.7259 9.72573 9.33332 10.2082 9.33332C10.6906 9.33332 11.0832 9.7259 11.0832 10.2083C11.0832 10.6908 10.6906 11.0833 10.2082 11.0833ZM11.6665 7.29168C11.6665 7.7741 11.2739 8.16668 10.7915 8.16668H3.20815C2.72573 8.16668 2.33315 7.7741 2.33315 7.29168V4.375C2.33315 3.89257 2.72573 3.5 3.20815 3.5H10.7915C11.2739 3.5 11.6665 3.89257 11.6665 4.375V7.29168H11.6665Z" fill="#E94646"/>
</svg>
