<svg width="42" height="42" viewBox="0 0 42 42" fill="none" xmlns="http://www.w3.org/2000/svg">
<g clip-path="url(#clip0)">
<path d="M26.7919 5.28232L23.1005 1.59091C22.8698 1.36008 22.5569 1.23047 22.2305 1.23047H9.83948C8.81122 0.458227 7.53432 0 6.15234 0C2.75994 0 0 2.75994 0 6.15234C0 9.54475 2.75994 12.3047 6.15234 12.3047C7.53432 12.3047 8.81122 11.8465 9.83948 11.0742H22.2305C22.5569 11.0742 22.8698 10.9446 23.1005 10.7139L26.7919 7.02245C27.2724 6.54191 27.2724 5.76286 26.7919 5.28232ZM6.15234 9.84375C4.1169 9.84375 2.46094 8.18779 2.46094 6.15234C2.46094 4.1169 4.1169 2.46094 6.15234 2.46094C8.18779 2.46094 9.84375 4.1169 9.84375 6.15234C9.84375 8.18779 8.18779 9.84375 6.15234 9.84375ZM21.7208 8.61328H11.7894C12.12 7.85909 12.3047 7.02712 12.3047 6.15234C12.3047 5.27756 12.12 4.4456 11.7894 3.69141H21.7208L24.1817 6.15234L21.7208 8.61328Z" fill="#E94646"/>
<path d="M36.6356 20.0479L32.9442 16.3565C32.7136 16.1257 32.4006 15.9961 32.0742 15.9961H9.83948C8.81122 15.2239 7.53432 14.7656 6.15234 14.7656C2.75994 14.7656 0 17.5256 0 20.918C0 24.3104 2.75994 27.0703 6.15234 27.0703C7.53432 27.0703 8.81122 26.6121 9.83948 25.8398H32.0742C32.4006 25.8398 32.7136 25.7102 32.9442 25.4795L36.6356 21.7881C37.1162 21.3075 37.1162 20.5285 36.6356 20.0479ZM6.15234 24.6094C4.1169 24.6094 2.46094 22.9534 2.46094 20.918C2.46094 18.8825 4.1169 17.2266 6.15234 17.2266C8.18779 17.2266 9.84375 18.8825 9.84375 20.918C9.84375 22.9534 8.18779 24.6094 6.15234 24.6094ZM31.5646 23.3789H11.7894C12.12 22.6247 12.3047 21.7927 12.3047 20.918C12.3047 20.0432 12.12 19.2112 11.7894 18.457H31.5646L34.0255 20.918L31.5646 23.3789Z" fill="#E94646"/>
<path d="M41.6492 34.9051L37.9577 31.1318C37.7262 30.8951 37.4091 30.7617 37.0781 30.7617H9.80651C8.75183 29.9631 7.48338 29.5312 6.15234 29.5312C2.75108 29.5312 0 32.3641 0 35.7656C0 39.1669 2.75084 42 6.15234 42C7.48346 42 8.75183 41.5682 9.80651 40.7695H37.0781C37.4091 40.7695 37.7262 40.6361 37.9577 40.3995L41.6492 36.6261C42.117 36.1478 42.117 35.3834 41.6492 34.9051ZM6.15234 39.5391C4.15136 39.5391 2.46094 37.8111 2.46094 35.7656C2.46094 33.7202 4.15136 31.9922 6.15234 31.9922C8.15333 31.9922 9.84375 33.7202 9.84375 35.7656C9.84375 37.8111 8.15333 39.5391 6.15234 39.5391ZM36.5605 38.3086H11.7634C12.1171 37.5164 12.3047 36.6541 12.3047 35.7656C12.3047 34.8771 12.1171 34.0148 11.7634 33.2227H36.5605L39.0482 35.7656L36.5605 38.3086Z" fill="#E94646"/>
<path d="M6.15234 22.1484C6.83191 22.1484 7.38281 21.5975 7.38281 20.918C7.38281 20.2384 6.83191 19.6875 6.15234 19.6875C5.47277 19.6875 4.92188 20.2384 4.92188 20.918C4.92188 21.5975 5.47277 22.1484 6.15234 22.1484Z" fill="#E94646"/>
<path d="M6.15234 7.38281C6.83191 7.38281 7.38281 6.83191 7.38281 6.15234C7.38281 5.47277 6.83191 4.92188 6.15234 4.92188C5.47277 4.92188 4.92188 5.47277 4.92188 6.15234C4.92188 6.83191 5.47277 7.38281 6.15234 7.38281Z" fill="#E94646"/>
<path d="M6.15234 36.9961C6.83191 36.9961 7.38281 36.4452 7.38281 35.7656C7.38281 35.0861 6.83191 34.5352 6.15234 34.5352C5.47277 34.5352 4.92188 35.0861 4.92188 35.7656C4.92188 36.4452 5.47277 36.9961 6.15234 36.9961Z" fill="#E94646"/>
</g>
<defs>
<clipPath id="clip0">
<rect width="42" height="42" fill="white"/>
</clipPath>
</defs>
</svg>
