<svg width="18" height="18" viewBox="0 0 18 18" fill="none" xmlns="http://www.w3.org/2000/svg">
<path d="M9.90011 12.6H8.1001V14.4H9.90011V12.6Z" fill="white"/>
<path d="M8.99988 3.59998C7.01087 3.59998 5.3999 5.21099 5.3999 7.19996H7.19992C7.19992 6.20995 8.00991 5.39995 8.99993 5.39995C9.98994 5.39995 10.7999 6.20999 10.7999 7.2C10.7999 9.00001 8.0999 8.77499 8.0999 11.7H9.89991C9.89991 9.67501 12.5999 9.45003 12.5999 7.2C12.5999 5.21099 10.9889 3.59998 8.99988 3.59998Z" fill="white"/>
<path d="M8.99998 0C4.03198 0 0 4.03198 0 8.99998C0 13.968 4.03198 18 8.99998 18C13.968 18 18 13.968 18 8.99998C18 4.03198 13.968 0 8.99998 0ZM8.99998 16.2C5.03098 16.2 1.79997 12.969 1.79997 8.99998C1.79997 5.03098 5.03098 1.80001 8.99998 1.80001C12.969 1.80001 16.2 5.03098 16.2 8.99998C16.2 12.969 12.969 16.2 8.99998 16.2Z" fill="white"/>
</svg>
