<svg width="36" height="36" viewBox="0 0 36 36" fill="none" xmlns="http://www.w3.org/2000/svg">
<g clip-path="url(#clip0)">
<path d="M23.1968 0.207917C23.0318 0.0340578 22.8055 -0.0703125 22.5709 -0.0703125H8.52732C5.93592 -0.0703125 3.79688 2.06021 3.79688 4.65134V31.2078C3.79688 33.7992 5.93592 35.9297 8.52732 35.9297H27.5881C30.1795 35.9297 32.3185 33.7992 32.3185 31.2078V10.1209C32.3185 9.89485 32.2142 9.6776 32.0664 9.51225L23.1968 0.207917ZM23.449 2.99927L29.3882 9.23402H25.5273C24.3795 9.23402 23.449 8.31227 23.449 7.16447V2.99927ZM27.5881 34.1906H8.52732C6.90134 34.1906 5.53601 32.8429 5.53601 31.2078V4.65134C5.53601 3.02537 6.89255 1.66883 8.52732 1.66883H21.7098V7.16447C21.7098 9.27742 23.4144 10.9732 25.5273 10.9732H30.5794V31.2078C30.5794 32.8429 29.2229 34.1906 27.5881 34.1906Z" fill="#E94646"/>
<path d="M25.2141 28.1904H10.9011C10.4229 28.1904 10.0315 28.5815 10.0315 29.06C10.0315 29.5382 10.4229 29.9296 10.9011 29.9296H25.2229C25.701 29.9296 26.0924 29.5382 26.0924 29.06C26.0924 28.5815 25.701 28.1904 25.2141 28.1904Z" fill="#E94646"/>
<path d="M17.4228 25.069C17.5881 25.2429 17.8142 25.3472 18.0575 25.3472C18.3011 25.3472 18.5272 25.2429 18.6922 25.069L23.788 19.5995C24.1184 19.2515 24.0923 18.695 23.7446 18.3734C23.3966 18.043 22.8401 18.0688 22.5185 18.4168L18.9271 22.2689V12.7734C18.9271 12.2949 18.5357 11.9038 18.0575 11.9038C17.5793 11.9038 17.1879 12.2949 17.1879 12.7734V22.2689L13.6053 18.4168C13.2749 18.0691 12.7269 18.043 12.3792 18.3734C12.0315 18.7038 12.0054 19.2518 12.3358 19.5995L17.4228 25.069Z" fill="#E94646"/>
</g>
<defs>
<clipPath id="clip0">
<rect width="36" height="36" fill="white"/>
</clipPath>
</defs>
</svg>
