<svg width="24" height="24" viewBox="0 0 24 24" fill="none" xmlns="http://www.w3.org/2000/svg">
<path d="M10.875 12.7233V2.25C10.875 1.95163 10.9935 1.66548 11.2045 1.4545C11.4155 1.24353 11.7016 1.125 12 1.125C12.2984 1.125 12.5845 1.24353 12.7955 1.4545C13.0065 1.66548 13.125 1.95163 13.125 2.25V12.7233L12 13.8483L10.875 12.7233ZM12.7955 17.2955L19.5455 10.5455C19.7565 10.3345 19.875 10.0484 19.875 9.75C19.875 9.45162 19.7565 9.16547 19.5455 8.95448C19.3345 8.7435 19.0484 8.62497 18.75 8.62497C18.4516 8.62497 18.1655 8.7435 17.9545 8.95448L12 14.909L6.04552 8.95448C5.83453 8.7435 5.54838 8.62497 5.25 8.62497C4.95162 8.62497 4.66547 8.7435 4.45448 8.95448C4.2435 9.16547 4.12497 9.45162 4.12497 9.75C4.12497 10.0484 4.2435 10.3345 4.45448 10.5455L11.2045 17.2955C11.309 17.4 11.433 17.4829 11.5695 17.5394C11.706 17.5959 11.8523 17.625 12 17.625C12.1477 17.625 12.294 17.5959 12.4305 17.5394C12.567 17.4829 12.691 17.4 12.7955 17.2955ZM22.875 21.75C22.875 21.4516 22.7565 21.1655 22.5455 20.9545C22.3345 20.7435 22.0484 20.625 21.75 20.625H2.25C1.95163 20.625 1.66548 20.7435 1.4545 20.9545C1.24353 21.1655 1.125 21.4516 1.125 21.75C1.125 22.0484 1.24353 22.3345 1.4545 22.5455C1.66548 22.7565 1.95163 22.875 2.25 22.875H21.75C22.0484 22.875 22.3345 22.7565 22.5455 22.5455C22.7565 22.3345 22.875 22.0484 22.875 21.75Z" fill="white"/>
</svg>
