<svg width="42" height="42" viewBox="0 0 42 42" fill="none" xmlns="http://www.w3.org/2000/svg">
<g clip-path="url(#clip0)">
<path d="M0.261272 31.6836C0.494549 31.9819 0.851833 32.1562 1.23059 32.1562H40.7696C41.1484 32.1562 41.5057 31.9819 41.739 31.6836C41.9722 31.3853 42.0552 30.9963 41.9639 30.6291L34.5811 0.933746C34.4446 0.385162 33.9521 0 33.3868 0H8.6134C8.04815 0 7.55564 0.385162 7.41914 0.933746L0.0363273 30.6291C-0.0549965 30.9963 0.0279961 31.3853 0.261272 31.6836ZM9.57534 2.46094H32.4249L39.196 29.6953H2.80456L9.57534 2.46094Z" fill="#E94646"/>
<path d="M35.8477 42C37.8831 42 39.5391 40.344 39.5391 38.3086C39.5391 36.2732 37.8831 34.6172 35.8477 34.6172C35.2728 34.6172 12.4646 34.6172 11.0742 34.6172C10.9432 34.6172 10.7964 34.6428 10.6852 34.6803L3.3024 37.1413C2.79996 37.3088 2.46094 37.7789 2.46094 38.3086C2.46094 38.8383 2.79996 39.3083 3.3024 39.4759L10.6852 41.9369C10.8028 41.9756 10.9489 42 11.0742 42H35.8477ZM12.3047 39.5391V37.0781H32.1562V39.5391C31.8272 39.5391 13.1346 39.5391 12.3047 39.5391ZM37.0781 38.3086C37.0781 38.987 36.526 39.5391 35.8477 39.5391H34.6172V37.0781H35.8477C36.526 37.0781 37.0781 37.6302 37.0781 38.3086ZM9.84375 37.5549V39.0623L7.58244 38.3086L9.84375 37.5549Z" fill="#E94646"/>
<path d="M35.6602 25.7078L30.7384 5.85626C30.6022 5.30736 30.1094 4.92188 29.5438 4.92188H12.4563C11.8907 4.92188 11.3979 5.30736 11.2617 5.85626L6.33984 25.7078C6.24884 26.0754 6.33183 26.4641 6.56511 26.7621C6.79839 27.0604 7.15567 27.2344 7.53442 27.2344H18.5391C19.2188 27.2344 19.7696 26.6835 19.7696 26.0039V22.5233C21.2019 23.0312 22.2305 24.3998 22.2305 26.0039C22.2305 26.6835 22.7813 27.2344 23.461 27.2344H34.4657C34.8444 27.2344 35.2017 27.0601 35.435 26.7621C35.6683 26.4641 35.7513 26.0754 35.6602 25.7078ZM24.5678 24.7734C23.9961 21.9687 21.5102 19.8516 18.5391 19.8516C17.8595 19.8516 17.3086 20.4024 17.3086 21.082V24.7734H9.10712L11.5681 14.8477H18.5391C19.2188 14.8477 19.7696 14.2968 19.7696 13.6172V11.1562C19.7696 10.4766 19.2188 9.92578 18.5391 9.92578C17.8595 9.92578 17.3086 10.4766 17.3086 11.1562V12.3867H12.1782L13.4189 7.38281H28.5812L29.8219 12.3867H24.6915V11.1562C24.6915 10.4766 24.1406 9.92578 23.461 9.92578C22.7813 9.92578 22.2305 10.4766 22.2305 11.1562V13.6172C22.2305 14.2968 22.7813 14.8477 23.461 14.8477H30.432L31.0627 17.3906H25.9219C25.2423 17.3906 24.6915 17.9415 24.6915 18.6211C24.6915 19.3007 25.2423 19.8516 25.9219 19.8516H31.6728L32.893 24.7734H24.5678Z" fill="#E94646"/>
</g>
<defs>
<clipPath id="clip0">
<rect width="42" height="42" fill="white"/>
</clipPath>
</defs>
</svg>
