<svg width="42" height="42" viewBox="0 0 42 42" fill="none" xmlns="http://www.w3.org/2000/svg">
<path d="M40.7695 39.5391H36.9961V1.23047C36.9961 0.550827 36.4453 0 35.7656 0H13.6172C12.9375 0 12.3867 0.550827 12.3867 1.23047V16.0813C11.3578 15.3072 10.0793 14.8477 8.69531 14.8477C5.30287 14.8477 2.54297 17.6076 2.54297 21C2.54297 21.4124 2.59007 21.8322 2.68396 22.2555C0.968674 23.9083 0 26.1007 0 28.3828C0 32.7186 3.25081 36.3155 7.46484 36.9096V39.5391H1.23047C0.550827 39.5391 0 40.0899 0 40.7695C0 41.4492 0.550827 42 1.23047 42H40.7695C41.4492 42 42 41.4492 42 40.7695C42 40.0899 41.4492 39.5391 40.7695 39.5391ZM22.2305 22.2305V17.3086H27.1523V22.2305H22.2305ZM14.7115 22.2305C14.8015 21.8158 14.8477 21.4044 14.8477 21V17.3086H19.7695V22.2305H14.7115ZM27.1523 9.92578V14.8477H22.2305V9.92578H27.1523ZM22.2305 7.46484V2.46094H27.1523V7.46484H22.2305ZM34.5352 14.8477H29.6133V9.92578H34.5352V14.8477ZM19.7695 14.8477H14.8477V9.92578H19.7695V14.8477ZM29.6133 17.3086H34.5352V22.2305H29.6133V17.3086ZM34.5352 7.46484H29.6133V2.46094H34.5352V7.46484ZM19.7695 2.46094V7.46484H14.8477V2.46094H19.7695ZM2.46094 28.3828C2.46094 26.5842 3.33348 24.8478 4.85458 23.6192C5.2625 23.2895 5.41663 22.7377 5.23878 22.2446C5.08081 21.8059 5.00391 21.3989 5.00391 21C5.00391 18.9646 6.65991 17.3086 8.69531 17.3086C10.7307 17.3086 12.3867 18.9646 12.3867 21C12.3867 21.3989 12.3098 21.8062 12.1518 22.2442C11.974 22.7377 12.1281 23.2895 12.536 23.6189C14.0052 24.8055 14.8477 26.5419 14.8477 28.3828C14.8477 31.3539 12.7305 33.8398 9.92578 34.4115V31.3536L12.0262 29.2528C12.5069 28.7725 12.5069 27.9935 12.0262 27.5128C11.5459 27.0322 10.7666 27.0322 10.2863 27.5128L9.92578 27.873V21C9.92578 20.3204 9.37495 19.7695 8.69531 19.7695C8.01567 19.7695 7.46484 20.3204 7.46484 21V25.4121L7.10435 25.0519C6.62402 24.5712 5.84473 24.5712 5.3644 25.0519C4.88374 25.5322 4.88374 26.3112 5.3644 26.7919L7.46484 28.8926V34.4144C4.61458 33.8488 2.46094 31.3596 2.46094 28.3828ZM9.92578 36.908C10.7945 36.783 11.6215 36.5286 12.3867 36.1639V39.5391H9.92578V36.908ZM27.1523 39.5391H22.2305V32.0742H27.1523V39.5391ZM29.6133 39.5391V32.0742H30.8438C31.5234 32.0742 32.0742 31.5234 32.0742 30.8438C32.0742 30.1641 31.5234 29.6133 30.8438 29.6133C29.2986 29.6133 19.8198 29.6133 18.5391 29.6133C17.8594 29.6133 17.3086 30.1641 17.3086 30.8438C17.3086 31.5234 17.8594 32.0742 18.5391 32.0742H19.7695V39.5391H14.8477V34.4041C16.3691 32.85 17.3086 30.7242 17.3086 28.3828C17.3086 27.0876 17.0138 25.8312 16.4626 24.6914H34.5352V39.5391H29.6133Z" fill="#E94646"/>
</svg>
