<svg width="42" height="42" viewBox="0 0 42 42" fill="none" xmlns="http://www.w3.org/2000/svg">
<path d="M38.3086 9.84375C38.72 9.84375 39.1042 9.63803 39.3324 9.29581L41.7933 5.6044C42.0689 5.19104 42.0689 4.65271 41.7933 4.23935L39.3324 0.547943C39.1042 0.205719 38.72 0 38.3086 0C36.5667 0 21.2205 0 18.5391 0C17.8594 0 17.3086 0.550827 17.3086 1.23047V7.38281H3.69141C3.27997 7.38281 2.89577 7.58853 2.66762 7.93076L0.20668 11.6222C-0.0688934 12.0355 -0.0688934 12.5739 0.20668 12.9872L2.66762 16.6786C2.89577 17.0208 3.27997 17.2266 3.69141 17.2266H17.3086V30.9303C16.9205 30.6384 16.4976 30.3903 16.0464 30.1958C15.742 30.0564 15.2226 29.8882 14.7426 29.7985C14.5125 28.5828 13.912 27.4622 12.9946 26.5656C11.8125 25.4098 10.2565 24.7734 8.61328 24.7734C5.22084 24.7734 2.46094 27.5333 2.46094 30.9258V30.9527C0.925735 32.1072 1.95578e-08 33.9177 1.95578e-08 35.8477C1.95578e-08 37.2316 0.459503 38.5101 1.23367 39.5391H1.23047C0.550827 39.5391 1.95578e-08 40.0899 1.95578e-08 40.7695C1.95578e-08 41.4492 0.550827 42 1.23047 42H40.7695C41.4492 42 42 41.4492 42 40.7695C42 40.0899 41.4492 39.5391 40.7695 39.5391H24.6914V24.6094H38.3086C38.72 24.6094 39.1042 24.4037 39.3324 24.0614L41.7933 20.37C42.0689 19.9567 42.0689 19.4183 41.7933 19.005L39.3324 15.3136C39.1042 14.9713 38.72 14.7656 38.3086 14.7656H24.6914V9.84375H38.3086ZM39.2907 4.92188L37.6501 7.38281H24.6914V2.46094H37.6501L39.2907 4.92188ZM4.3499 14.7656L2.70927 12.3047L4.3499 9.84375H17.3086V14.7656H4.3499ZM2.46094 35.8477C2.46094 35.0831 2.70767 34.3496 3.1425 33.7392C3.43346 34.3054 3.80836 34.8213 4.26306 35.276C4.74339 35.7567 5.52237 35.7567 6.00302 35.276C6.48367 34.7957 6.48367 34.0164 6.00302 33.536C3.67154 31.2046 5.35414 27.2344 8.61328 27.2344C10.2767 27.2344 11.7301 28.3524 12.215 29.8462C11.0117 30.1045 9.99339 30.6887 9.18494 31.4971C8.70428 31.9778 8.70428 32.7567 9.18462 33.2374C9.66527 33.7177 10.4442 33.718 10.9249 33.2374C11.6081 32.5542 12.5178 32.1562 13.6172 32.1562C15.6526 32.1562 17.3086 33.8123 17.3086 35.8477C17.3086 37.8831 15.6526 39.5391 13.6172 39.5391H6.15234C4.11694 39.5391 2.46094 37.8831 2.46094 35.8477ZM19.7695 39.5391V2.46094H22.2305V39.5391H19.7695ZM37.6501 17.2266L39.2907 19.6875L37.6501 22.1484H24.6914V17.2266H37.6501Z" fill="#E94646"/>
</svg>
