<svg width="42" height="42" viewBox="0 0 42 42" fill="none" xmlns="http://www.w3.org/2000/svg">
<path d="M7.38281 13.6172V12.3867H8.61328C10.6487 12.3867 12.3047 10.7307 12.3047 8.69531C12.3047 6.65991 10.6487 5.00391 8.61328 5.00391H6.15234C5.4727 5.00391 4.92188 5.55473 4.92188 6.23438V13.6172C4.92188 14.2968 5.4727 14.8477 6.15234 14.8477C6.83199 14.8477 7.38281 14.2968 7.38281 13.6172ZM9.84375 8.69531C9.84375 9.37367 9.29164 9.92578 8.61328 9.92578H7.38281V7.46484H8.61328C9.29164 7.46484 9.84375 8.01695 9.84375 8.69531Z" fill="#E94646"/>
<path d="M39.2346 24.8093L37.5758 19.8327C37.0727 18.3228 35.6653 17.3086 34.0741 17.3086H20.3947C18.8034 17.3086 17.3961 18.3228 16.893 19.8327L15.2341 24.8093C13.6454 25.2211 12.4688 26.6672 12.4688 28.3828V35.8477C12.4688 36.5273 13.0196 37.0781 13.6992 37.0781H14.9297V38.3086C14.9297 40.344 16.5857 42 18.6211 42C20.6565 42 22.3125 40.344 22.3125 38.3086V37.0781H32.1562V38.3086C32.1562 40.344 33.8123 42 35.8477 42C37.8831 42 39.5391 40.344 39.5391 38.3086V37.0781H40.7695C41.4492 37.0781 42 36.5273 42 35.8477V28.3828C42 26.6672 40.8234 25.2211 39.2346 24.8093ZM20.3947 19.7695H34.0741C34.6044 19.7695 35.0735 20.1076 35.2411 20.611L36.6013 24.6914H33.8965L34.2567 24.3309C34.7374 23.8503 34.7374 23.0713 34.2567 22.591C33.7764 22.1103 32.9974 22.1103 32.5167 22.591L30.416 24.6914H24.0528L24.4129 24.3309C24.8936 23.8503 24.8936 23.0713 24.4129 22.591C23.9326 22.1103 23.1536 22.1103 22.673 22.591L20.5722 24.6914H17.8674L19.2274 20.611C19.3953 20.1076 19.8644 19.7695 20.3947 19.7695ZM19.8516 38.3086C19.8516 38.987 19.2995 39.5391 18.6211 39.5391C17.9427 39.5391 17.3906 38.987 17.3906 38.3086V37.0781H19.8516V38.3086ZM37.0781 38.3086C37.0781 38.987 36.526 39.5391 35.8477 39.5391C35.1693 39.5391 34.6172 38.987 34.6172 38.3086V37.0781H37.0781V38.3086ZM39.5391 34.6172H14.9297V28.3828C14.9297 27.7054 15.4799 27.1543 16.1566 27.1527H16.1605C16.163 27.1527 16.1656 27.1523 16.1685 27.1523H38.3086C38.987 27.1523 39.5391 27.7045 39.5391 28.3828V34.6172Z" fill="#E94646"/>
<path d="M11.0742 39.5391H9.84375V35.8477C9.84375 35.168 9.29292 34.6172 8.61328 34.6172H7.38281V19.7695H11.0742C14.4667 19.7695 17.2266 17.0096 17.2266 13.6172V6.15234C17.2266 2.7599 14.4667 0 11.0742 0H3.69141C1.65601 0 0 1.65601 0 3.69141V16.0781C0 18.1135 1.65601 19.7695 3.69141 19.7695H4.92188V34.6172H3.69141C3.01176 34.6172 2.46094 35.168 2.46094 35.8477V39.5391H1.23047C0.550827 39.5391 0 40.0899 0 40.7695C0 41.4492 0.550827 42 1.23047 42H11.0742C11.7539 42 12.3047 41.4492 12.3047 40.7695C12.3047 40.0899 11.7539 39.5391 11.0742 39.5391ZM2.46094 16.0781V3.69141C2.46094 3.01305 3.01305 2.46094 3.69141 2.46094H11.0742C13.1096 2.46094 14.7656 4.11694 14.7656 6.15234V13.6172C14.7656 15.6526 13.1096 17.3086 11.0742 17.3086H3.69141C3.01305 17.3086 2.46094 16.7565 2.46094 16.0781ZM4.92188 37.0781H7.38281V39.5391H4.92188V37.0781Z" fill="#E94646"/>
<path d="M21.082 29.6133H18.6211C17.9415 29.6133 17.3906 30.1641 17.3906 30.8438C17.3906 31.5234 17.9415 32.0742 18.6211 32.0742H21.082C21.7617 32.0742 22.3125 31.5234 22.3125 30.8438C22.3125 30.1641 21.7617 29.6133 21.082 29.6133Z" fill="#E94646"/>
<path d="M35.8477 29.6133H33.3867C32.7071 29.6133 32.1562 30.1641 32.1562 30.8438C32.1562 31.5234 32.7071 32.0742 33.3867 32.0742H35.8477C36.5273 32.0742 37.0781 31.5234 37.0781 30.8438C37.0781 30.1641 36.5273 29.6133 35.8477 29.6133Z" fill="#E94646"/>
</svg>
