<svg width="42" height="42" viewBox="0 0 42 42" fill="none" xmlns="http://www.w3.org/2000/svg">
<path d="M7.46484 17.2266H12.3867C13.0664 17.2266 13.6172 16.6757 13.6172 15.9961V11.0742C13.6172 10.3946 13.0664 9.84375 12.3867 9.84375H7.46484C6.7852 9.84375 6.23438 10.3946 6.23438 11.0742V15.9961C6.23438 16.6757 6.7852 17.2266 7.46484 17.2266ZM8.69531 12.3047H11.1562V14.7656H8.69531V12.3047Z" fill="#E94646"/>
<path d="M36.9961 9.84375H18.5391V6.15234C18.5391 5.4727 17.9882 4.92188 17.3086 4.92188H16.0781V3.69141C16.0781 1.65601 14.4221 0 12.3867 0H7.46484C5.42944 0 3.77344 1.65601 3.77344 3.69141V4.92188H2.54297C1.86333 4.92188 1.3125 5.4727 1.3125 6.15234V40.7695C1.3125 41.4492 1.86333 42 2.54297 42H17.3086C17.9882 42 18.5391 41.4492 18.5391 40.7695V25.8921L25.7729 33.1256C27.2158 34.5685 29.5498 34.5688 30.9928 33.1256C32.4357 31.683 32.436 29.3486 30.9928 27.9057L20.3139 17.2266H36.9961C39.0315 17.2266 40.6875 15.5706 40.6875 13.5352C40.6875 11.4998 39.0315 9.84375 36.9961 9.84375ZM6.23438 3.69141C6.23438 3.01305 6.78648 2.46094 7.46484 2.46094H12.3867C13.0651 2.46094 13.6172 3.01305 13.6172 3.69141V4.92188H6.23438V3.69141ZM16.0781 7.38281V19.6875H3.77344V7.38281H16.0781ZM3.77344 39.5391V22.1484H16.0781V39.5391H3.77344ZM29.2528 31.3856C28.7715 31.8666 27.9941 31.8666 27.5128 31.3856L18.5391 22.4118V18.9319L29.2528 29.6456C29.7322 30.1253 29.7322 30.9059 29.2528 31.3856ZM36.9961 14.7656H18.5391V12.3047H36.9961C37.6745 12.3047 38.2266 12.8568 38.2266 13.5352C38.2266 14.2135 37.6745 14.7656 36.9961 14.7656Z" fill="#E94646"/>
</svg>
