<svg width="42" height="42" viewBox="0 0 42 42" fill="none" xmlns="http://www.w3.org/2000/svg">
<g clip-path="url(#clip0)">
<path d="M40.7695 36.9961C41.4492 36.9961 42 36.4453 42 35.7656C42 35.086 41.4492 34.5352 40.7695 34.5352H39.5391V30.8438C39.5391 30.1641 38.9882 29.6133 38.3086 29.6133H30.8438C30.1641 29.6133 29.6133 30.1641 29.6133 30.8438V34.5352H28.3828C27.7032 34.5352 27.1523 35.086 27.1523 35.7656C27.1523 36.4453 27.7032 36.9961 28.3828 36.9961H29.6133V39.5391H24.6914V33.8315C28.9881 32.1383 32.0742 27.5776 32.0742 22.2305C32.0742 19.1927 31.0882 16.3194 29.2855 14.0661C29.5056 13.0648 29.6133 12.1076 29.6133 11.1562C29.6133 5.00455 25.7495 0 21 0C19.212 0 17.4951 0.698227 16.0586 1.98862C14.666 0.735718 12.9763 0 11.1562 0C6.40677 0 2.54297 5.00455 2.54297 11.1562C2.54297 12.107 2.65063 13.0641 2.87045 14.0645C1.01482 16.3678 0 19.2421 0 22.2305C0 27.5888 3.12199 32.1575 7.46484 33.8421V39.5391H1.23047C0.550827 39.5391 0 40.0899 0 40.7695C0 41.4492 0.550827 42 1.23047 42H40.7695C41.4492 42 42 41.4492 42 40.7695C42 40.0899 41.4492 39.5391 40.7695 39.5391H39.5391V36.9961H40.7695ZM32.0742 32.0742H37.0781V34.5352H32.0742V32.0742ZM22.2305 39.5391H19.7695V34.4579C20.1768 34.5082 20.5876 34.5352 21 34.5352C21.4159 34.5352 21.8264 34.5086 22.2305 34.4589V39.5391ZM16.073 33.2537C16.4742 33.4748 16.8869 33.6677 17.3086 33.8328V39.5391H14.8477V33.8315C15.2684 33.6655 15.6773 33.4726 16.073 33.2537ZM25.232 4.88759C26.4705 6.55769 27.1523 8.78375 27.1523 11.1562C27.1523 12.6274 26.8502 13.6108 26.7476 14.1094C26.5201 15.2146 25.9238 16.4617 25.2361 17.3784C24.8282 17.9222 24.9385 18.6935 25.4822 19.1011C26.0292 19.5116 26.7995 19.3953 27.2049 18.855C27.6227 18.2981 27.9935 17.6838 28.3117 17.0273C29.1595 18.5733 29.6133 20.3604 29.6133 22.2305C29.6133 27.6583 25.7495 32.0742 21 32.0742C20.0919 32.0742 19.1918 31.9089 18.3356 31.591C20.7174 29.3323 22.2305 25.9741 22.2305 22.2305C22.2305 19.1927 21.2445 16.3194 19.4417 14.0661C19.6619 13.0648 19.7695 12.1076 19.7695 11.1562C19.7695 8.36719 18.9752 5.81364 17.6643 3.85579C18.6576 2.95088 19.8166 2.46094 21 2.46094C22.5688 2.46094 24.0717 3.32259 25.232 4.88759ZM2.46094 22.2305C2.46094 20.38 2.94031 18.5842 3.8356 17.008C4.15572 17.6716 4.52966 18.2926 4.95135 18.855C5.35703 19.3959 6.12799 19.5109 6.67401 19.1011C7.21779 18.6935 7.32802 17.9222 6.9201 17.3784C6.27603 16.52 5.77007 15.4757 5.44194 14.3353C5.42848 13.9991 5.00391 12.8751 5.00391 11.1562C5.00391 8.78375 5.68579 6.55769 6.92427 4.88759C8.08456 3.32259 9.5874 2.46094 11.1562 2.46094C12.7251 2.46094 14.2279 3.32259 15.3882 4.88759C16.6267 6.55769 17.3086 8.78375 17.3086 11.1562C17.3086 11.4248 17.2964 11.6952 17.2749 11.9679C15.4776 10.6394 13.3685 9.92578 11.1562 9.92578C10.4766 9.92578 9.92578 10.4766 9.92578 11.1562C9.92578 11.8359 10.4766 12.3867 11.1562 12.3867C13.4083 12.3867 15.535 13.374 17.1519 15.1674C17.1618 15.1796 17.1714 15.1915 17.1817 15.2033C18.8505 17.0721 19.7695 19.5677 19.7695 22.2305C19.7695 27.6583 15.9057 32.0742 11.1562 32.0742C6.29686 32.0742 2.46094 27.5833 2.46094 22.2305ZM9.92578 34.4599C10.3298 34.5092 10.7403 34.5352 11.1562 34.5352C11.5722 34.5352 11.9827 34.5086 12.3867 34.4589V39.5391H9.92578V34.4599ZM37.0781 39.5391H32.0742V36.9961H37.0781V39.5391Z" fill="#E94646"/>
</g>
<defs>
<clipPath id="clip0">
<rect width="42" height="42" fill="white"/>
</clipPath>
</defs>
</svg>
