<svg width="20" height="20" viewBox="0 0 20 20" fill="none" xmlns="http://www.w3.org/2000/svg">
<path d="M14.6094 1.21094C12.3354 1.21094 10.8015 2.36328 10 3.17984C9.19852 2.36328 7.66461 1.21094 5.39062 1.21094C2.22828 1.21094 0 4.01785 0 7.33074C0 12.4539 5.09754 16.3677 9.64301 18.7027C9.86707 18.8179 10.1329 18.8179 10.357 18.7027C14.9048 16.3665 20 12.4566 20 7.33074C20 4.02371 17.7768 1.21094 14.6094 1.21094ZM10 17.1269C6.1666 15.1014 1.5625 11.6399 1.5625 7.33074C1.5625 4.95789 3.04824 2.77344 5.39062 2.77344C7.23855 2.77344 8.70187 3.86258 9.34453 4.81961C9.48711 5.04422 9.73215 5.1777 9.99828 5.17899C10.2659 5.17992 10.5121 5.04211 10.6566 4.81785C10.6698 4.79738 12.0048 2.77344 14.6094 2.77344C16.9523 2.77344 18.4375 4.95879 18.4375 7.33074C18.4375 11.6372 13.8253 15.1057 10 17.1269Z" fill="#E94646"/>
</svg>
