<svg width="14" height="14" viewBox="0 0 14 14" fill="none" xmlns="http://www.w3.org/2000/svg">
<g clip-path="url(#clip0)">
<path d="M10.3765 4.51462C10.2572 4.39521 10.0459 4.39521 9.92659 4.51462L3.87463 10.5717C3.80223 10.6441 3.7693 10.7468 3.78544 10.8478C3.8019 10.9489 3.86592 11.036 3.95726 11.0817L4.45409 11.3305V12.1672L2.93187 12.6027L1.39536 11.0649L1.83057 9.54137H2.66654L2.91511 10.0386C2.96078 10.13 3.04779 10.1941 3.14876 10.2106C3.16585 10.2134 3.18294 10.2146 3.19971 10.2146C3.28329 10.2146 3.36469 10.1817 3.42468 10.1213L9.47664 4.06429C9.5363 4.00457 9.56986 3.92373 9.56986 3.83913C9.56986 3.75454 9.5363 3.6737 9.47664 3.61398L8.30647 2.44279C8.24681 2.38308 8.16603 2.34949 8.08149 2.34949H8.08087C7.99603 2.34979 7.91493 2.3837 7.8556 2.44372L1.36461 8.99871C1.36147 9.0019 1.36162 9.00677 1.35861 9.01002C1.32595 9.04531 1.29868 9.08605 1.28442 9.13554L0.731954 11.0702L0.011724 13.5939C-0.0199846 13.7049 0.0110976 13.8246 0.0928301 13.9064C0.153414 13.9671 0.23452 13.9997 0.317803 13.9997C0.347006 13.9997 0.376209 13.9957 0.405114 13.9876L2.92662 13.2667L4.85962 12.7138C4.86544 12.7121 4.86944 12.7077 4.87514 12.7057C4.89521 12.6988 4.91278 12.6875 4.93124 12.6766C4.94938 12.6658 4.96752 12.6563 4.98285 12.6424C4.98697 12.6388 4.99236 12.6374 4.99633 12.6335L11.5458 6.13704C11.6057 6.07765 11.6396 5.99648 11.6399 5.91159C11.6402 5.82699 11.6066 5.74582 11.5467 5.68581L10.3765 4.51462Z" fill="white"/>
<path d="M13.6267 2.27211L11.7176 0.361415C11.2366 -0.120001 10.3999 -0.120926 9.91698 0.36234L8.75146 1.53944C8.62812 1.66415 8.62841 1.86473 8.75239 1.98882L12.0007 5.23986C12.0628 5.30205 12.1443 5.33317 12.2257 5.33317C12.3068 5.33317 12.3875 5.30238 12.4497 5.24082L13.6267 4.07338C13.8672 3.83269 13.9996 3.51298 13.9996 3.17277C13.9996 2.83257 13.8672 2.5128 13.6267 2.27211Z" fill="white"/>
</g>
<defs>
<clipPath id="clip0">
<rect width="14" height="14" fill="white"/>
</clipPath>
</defs>
</svg>
