<svg width="14" height="14" viewBox="0 0 14 14" fill="none" xmlns="http://www.w3.org/2000/svg">
<g clip-path="url(#clip0)">
<path d="M10.3765 4.51425C10.2572 4.39485 10.0459 4.39485 9.92659 4.51425L3.87463 10.5713C3.80223 10.6438 3.7693 10.7464 3.78544 10.8475C3.8019 10.9485 3.86592 11.0356 3.95726 11.0813L4.45409 11.3301V12.1668L2.93187 12.6024L1.39536 11.0645L1.83057 9.541H2.66654L2.91511 10.0383C2.96078 10.1297 3.04779 10.1938 3.14876 10.2102C3.16585 10.213 3.18294 10.2142 3.19971 10.2142C3.28329 10.2142 3.36469 10.1813 3.42468 10.1209L9.47664 4.06392C9.5363 4.0042 9.56986 3.92336 9.56986 3.83877C9.56986 3.75417 9.5363 3.67333 9.47664 3.61362L8.30647 2.44243C8.24681 2.38271 8.16603 2.34912 8.08149 2.34912H8.08087C7.99603 2.34942 7.91493 2.38334 7.8556 2.44335L1.36461 8.99835C1.36147 9.00154 1.36162 9.0064 1.35861 9.00965C1.32595 9.04494 1.29868 9.08569 1.28442 9.13517L0.731954 11.0698L0.011724 13.5935C-0.0199846 13.7045 0.0110976 13.8243 0.0928301 13.906C0.153414 13.9667 0.23452 13.9994 0.317803 13.9994C0.347006 13.9994 0.376209 13.9953 0.405114 13.9872L2.92662 13.2664L4.85962 12.7134C4.86544 12.7117 4.86944 12.7074 4.87514 12.7054C4.89521 12.6984 4.91278 12.6872 4.93124 12.6762C4.94938 12.6655 4.96752 12.6559 4.98285 12.6421C4.98697 12.6384 4.99236 12.6371 4.99633 12.6332L11.5458 6.13667C11.6057 6.07728 11.6396 5.99611 11.6399 5.91122C11.6402 5.82662 11.6066 5.74546 11.5467 5.68544L10.3765 4.51425Z" fill="#E94646"/>
<path d="M13.6267 2.27198L11.7176 0.361293C11.2366 -0.120123 10.3999 -0.121048 9.91698 0.362218L8.75146 1.53932C8.62812 1.66403 8.62841 1.8646 8.75239 1.98869L12.0007 5.23974C12.0628 5.30193 12.1443 5.33305 12.2257 5.33305C12.3068 5.33305 12.3875 5.30226 12.4497 5.24069L13.6267 4.07326C13.8672 3.83257 13.9996 3.51286 13.9996 3.17265C13.9996 2.83245 13.8672 2.51268 13.6267 2.27198Z" fill="#E94646"/>
</g>
<defs>
<clipPath id="clip0">
<rect width="14" height="14" fill="white"/>
</clipPath>
</defs>
</svg>
