<svg width="48" height="48" viewBox="0 0 48 48" fill="none" xmlns="http://www.w3.org/2000/svg">
<path d="M46.5938 11.25H45.1875V8.4375H46.5938C47.3705 8.4375 48 7.80798 48 7.03125C48 3.15417 44.8458 0 40.9688 0H7.03125C3.15417 0 0 3.15417 0 7.03125C0 7.80798 0.629517 8.4375 1.40625 8.4375H2.8125V11.25H1.40625C0.629517 11.25 0 11.8795 0 12.6562V46.5938C0 47.3705 0.629517 48 1.40625 48H7.03125C7.80798 48 8.4375 47.3705 8.4375 46.5938V42.2812H14.0625V46.5938C14.0625 47.3705 14.692 48 15.4688 48C16.2455 48 16.875 47.3705 16.875 46.5938V42.2812H31.125V46.5938C31.125 47.3705 31.7545 48 32.5312 48C33.308 48 33.9375 47.3705 33.9375 46.5938V42.2812H39.5625V46.5938C39.5625 47.3705 40.192 48 40.9688 48H46.5938C47.3705 48 48 47.3705 48 46.5938V12.6562C48 11.8795 47.3705 11.25 46.5938 11.25ZM7.03125 2.8125H40.9688C42.8024 2.8125 44.3661 3.98804 44.9465 5.625H3.05347C3.63391 3.98804 5.19763 2.8125 7.03125 2.8125ZM5.625 8.4375H42.375V11.25H40.9688C40.192 11.25 39.5625 11.8795 39.5625 12.6562V14.0625H8.4375V12.6562C8.4375 11.8795 7.80798 11.25 7.03125 11.25H5.625V8.4375ZM5.625 45.1875H2.8125V14.0625H5.625V45.1875ZM16.875 39.4688V36.6562H31.125V39.4688H16.875ZM33.9375 39.4688V36.6562H35.3438C36.1205 36.6562 36.75 36.0267 36.75 35.25C36.75 34.4733 36.1205 33.8438 35.3438 33.8438H12.6562C11.8795 33.8438 11.25 34.4733 11.25 35.25C11.25 36.0267 11.8795 36.6562 12.6562 36.6562H14.0625V39.4688H8.4375V16.875H39.5625V39.4688H33.9375ZM45.1875 45.1875H42.375V14.0625H45.1875V45.1875Z" fill="#C4C4C4"/>
</svg>
