<svg width="48" height="48" viewBox="0 0 48 48" fill="none" xmlns="http://www.w3.org/2000/svg">
<path d="M46.5938 14.0625H36.75V2.8125H38.1562C38.933 2.8125 39.5625 2.18298 39.5625 1.40625C39.5625 0.629517 38.933 0 38.1562 0H12.75C11.9733 0 11.3438 0.629517 11.3438 1.40625C11.3438 2.18298 11.9733 2.8125 12.75 2.8125H14.1562V8.4375H1.40625C0.629517 8.4375 0 9.06702 0 9.84375V46.5938C0 47.3705 0.629517 48 1.40625 48H46.5938C47.3705 48 48 47.3705 48 46.5938V15.4688C48 14.692 47.3705 14.0625 46.5938 14.0625ZM42.375 28.125H45.1875V30.9375H42.375V28.125ZM42.375 25.3125V22.5H45.1875V25.3125H42.375ZM42.375 33.75H45.1875V36.5625H42.375V33.75ZM45.1875 19.6875H42.375V16.875H45.1875V19.6875ZM22.5938 28.125V25.3125H28.2188V28.125H22.5938ZM22.5938 14.0625H28.2188V16.875H22.5938V14.0625ZM22.5938 19.6875H28.2188V22.5H22.5938V19.6875ZM28.2188 11.25H22.5938V8.4375H28.2188V11.25ZM28.2188 5.625H22.5938V2.8125H28.2188V5.625ZM2.8125 36.5625V33.75H5.625V36.5625H2.8125ZM5.625 28.125V30.9375H2.8125V28.125H5.625ZM2.8125 25.3125V22.5H5.625V25.3125H2.8125ZM5.625 19.6875H2.8125V16.875H5.625V19.6875ZM5.625 11.25V14.0625H2.8125V11.25H5.625ZM2.8125 39.375H7.03125C7.80798 39.375 8.4375 38.7455 8.4375 37.9688V11.25H14.1562V45.1875H2.8125V39.375ZM16.9688 2.8125H19.7812V29.5312C19.7812 30.308 20.4108 30.9375 21.1875 30.9375H29.625C30.4017 30.9375 31.0312 30.308 31.0312 29.5312V2.8125H33.9375V45.1875H31.0312V35.1562C31.0312 34.3795 30.4017 33.75 29.625 33.75H21.1875C20.4108 33.75 19.7812 34.3795 19.7812 35.1562V45.1875H16.9688V2.8125ZM28.2188 45.1875H22.5938V36.5625H28.2188V45.1875ZM36.75 45.1875V16.875H39.5625V37.9688C39.5625 38.7455 40.192 39.375 40.9688 39.375H45.1875V45.1875H36.75Z" fill="#C4C4C4"/>
</svg>
