<svg width="48" height="48" viewBox="0 0 48 48" fill="none" xmlns="http://www.w3.org/2000/svg">
<g clip-path="url(#clip0)">
<path d="M46.5945 33.8436H43.4843C43.338 33.6184 43.4385 33.7327 41.0577 31.634L42.7576 24.0912C43.3826 21.3176 41.6345 18.5526 38.861 17.9276L37.0319 17.5154L40.1441 3.70552C41.6372 4.04198 41.6186 4.04939 41.8264 4.04939C42.4694 4.04939 43.0497 3.60567 43.197 2.95205C43.3677 2.19437 42.892 1.44184 42.1343 1.27103L36.647 0.034375C35.8894 -0.136062 35.1367 0.339343 34.9659 1.09703C34.7952 1.85471 35.2709 2.60724 36.0286 2.77805L37.4004 3.08724L34.2882 16.8971L32.4592 16.4849C29.6793 15.8581 26.922 17.6008 26.2955 20.3814L24.7766 27.1211C23.8917 27.5946 22.9085 27.7963 21.9372 27.7223L24.2161 16.3276H24.4695C25.2462 16.3276 25.8758 15.698 25.8758 14.9213C25.8758 14.1742 25.2839 13.5151 24.4481 13.5151C24.1166 8.38503 19.8382 4.31255 14.6258 4.31255C9.41344 4.31255 5.13517 8.38494 4.80368 13.515C2.99046 13.515 2.747 16.3275 4.99211 16.3275L7.1356 29.5296C3.56759 34.0611 3.80796 33.7498 3.74702 33.8436H1.40722C0.630599 33.8436 0.000976562 34.4732 0.000976562 35.2498V46.5935C0.000976562 47.3702 0.630599 47.9998 1.40722 47.9998H46.5945C47.3712 47.9998 48.0008 47.3702 48.0008 46.5935V35.2498C48.0008 34.4732 47.3712 33.8436 46.5945 33.8436ZM29.0392 20.9997C29.3239 19.7361 30.577 18.9436 31.8408 19.2285L38.2428 20.6713C39.5034 20.9554 40.2979 22.2123 40.0139 23.4729L38.6524 29.5139L35.3204 26.5767C33.3132 24.8075 30.5299 24.3228 28.0931 25.197L29.0392 20.9997ZM14.6259 7.12494C18.2867 7.12494 21.3015 9.93743 21.6266 13.515H7.62526C7.95029 9.93752 10.9652 7.12494 14.6259 7.12494ZM21.348 16.3275L19.2594 26.7707C17.7099 25.8853 15.8231 24.5409 12.8388 25.1223C11.6087 25.3619 10.4707 25.9171 9.52875 26.7203L7.84145 16.3275H21.348ZM10.7489 29.4869C13.4065 26.1121 17.0207 28.7308 18.3458 29.488C20.9484 30.9753 24.1027 30.897 26.6233 29.2967C27.1506 29.0422 30.3534 25.9477 33.4608 28.6867L39.3111 33.8437H7.31842L10.7489 29.4869ZM45.1883 45.1873H2.81347V36.6561H45.1883V45.1873Z" fill="#C4C4C4"/>
</g>
<defs>
<clipPath id="clip0">
<rect width="48" height="48" fill="white"/>
</clipPath>
</defs>
</svg>
