<svg width="48" height="48" viewBox="0 0 48 48" fill="none" xmlns="http://www.w3.org/2000/svg">
<g clip-path="url(#clip0)">
<path d="M43.7812 11.25C44.2515 11.25 44.6906 11.0149 44.9513 10.6238L47.7638 6.40503C48.0787 5.93262 48.0787 5.31738 47.7638 4.84497L44.9513 0.626221C44.6906 0.235107 44.2515 0 43.7812 0C41.7905 0 24.252 0 21.1875 0C20.4108 0 19.7812 0.629517 19.7812 1.40625V8.4375H4.21875C3.74854 8.4375 3.30945 8.67261 3.04871 9.06372L0.236206 13.2825C-0.0787354 13.7549 -0.0787354 14.3701 0.236206 14.8425L3.04871 19.0613C3.30945 19.4524 3.74854 19.6875 4.21875 19.6875H19.7812V35.3489C19.3378 35.0153 18.8544 34.7318 18.3387 34.5095C17.9908 34.3502 17.3972 34.158 16.8486 34.0554C16.5857 32.666 15.8994 31.3854 14.851 30.3607C13.5 29.0398 11.7217 28.3125 9.84375 28.3125C5.96667 28.3125 2.8125 31.4667 2.8125 35.3438V35.3745C1.05798 36.694 2.23517e-08 38.7631 2.23517e-08 40.9688C2.23517e-08 42.5504 0.525146 44.0116 1.40991 45.1875H1.40625C0.629517 45.1875 2.23517e-08 45.817 2.23517e-08 46.5938C2.23517e-08 47.3705 0.629517 48 1.40625 48H46.5938C47.3705 48 48 47.3705 48 46.5938C48 45.817 47.3705 45.1875 46.5938 45.1875H28.2188V28.125H43.7812C44.2515 28.125 44.6906 27.8899 44.9513 27.4988L47.7638 23.28C48.0787 22.8076 48.0787 22.1924 47.7638 21.72L44.9513 17.5012C44.6906 17.1101 44.2515 16.875 43.7812 16.875H28.2188V11.25H43.7812ZM44.9037 5.625L43.0287 8.4375H28.2188V2.8125H43.0287L44.9037 5.625ZM4.97131 16.875L3.09631 14.0625L4.97131 11.25H19.7812V16.875H4.97131ZM2.8125 40.9688C2.8125 40.095 3.09448 39.2567 3.59143 38.5591C3.92395 39.2062 4.35242 39.7958 4.87207 40.3154C5.42102 40.8647 6.31128 40.8647 6.8606 40.3154C7.40991 39.7665 7.40991 38.8759 6.8606 38.3269C4.19604 35.6624 6.11902 31.125 9.84375 31.125C11.7448 31.125 13.4059 32.4027 13.96 34.11C12.5848 34.4052 11.421 35.0728 10.4971 35.9967C9.94775 36.546 9.94775 37.4363 10.4967 37.9856C11.046 38.5345 11.9363 38.5349 12.4856 37.9856C13.2664 37.2048 14.306 36.75 15.5625 36.75C17.8887 36.75 19.7812 38.6426 19.7812 40.9688C19.7812 43.2949 17.8887 45.1875 15.5625 45.1875H7.03125C4.70508 45.1875 2.8125 43.2949 2.8125 40.9688ZM22.5938 45.1875V2.8125H25.4062V45.1875H22.5938ZM43.0287 19.6875L44.9037 22.5L43.0287 25.3125H28.2188V19.6875H43.0287Z" fill="#C4C4C4"/>
</g>
<defs>
<clipPath id="clip0">
<rect width="48" height="48" fill="white"/>
</clipPath>
</defs>
</svg>
