<svg width="46" height="48" viewBox="0 0 46 48" fill="none" xmlns="http://www.w3.org/2000/svg">
<path d="M41.2812 11.25H20.1875V7.03125C20.1875 6.25452 19.558 5.625 18.7812 5.625H17.375V4.21875C17.375 1.89258 15.4824 0 13.1562 0H7.53125C5.20508 0 3.3125 1.89258 3.3125 4.21875V5.625H1.90625C1.12952 5.625 0.5 6.25452 0.5 7.03125V46.5938C0.5 47.3705 1.12952 48 1.90625 48H18.7812C19.558 48 20.1875 47.3705 20.1875 46.5938V29.5909L28.4547 37.8578C30.1038 39.5068 32.7712 39.5072 34.4203 37.8578C36.0693 36.2091 36.0697 33.5413 34.4203 31.8922L22.2159 19.6875H41.2812C43.6074 19.6875 45.5 17.7949 45.5 15.4688C45.5 13.1426 43.6074 11.25 41.2812 11.25ZM6.125 4.21875C6.125 3.44348 6.75598 2.8125 7.53125 2.8125H13.1562C13.9315 2.8125 14.5625 3.44348 14.5625 4.21875V5.625H6.125V4.21875ZM17.375 8.4375V22.5H3.3125V8.4375H17.375ZM3.3125 45.1875V25.3125H17.375V45.1875H3.3125ZM32.4318 35.8693C31.8817 36.4189 30.9933 36.4189 30.4432 35.8693L20.1875 25.6135V21.6365L32.4318 33.8807C32.9796 34.429 32.9796 35.321 32.4318 35.8693ZM41.2812 16.875H20.1875V14.0625H41.2812C42.0565 14.0625 42.6875 14.6935 42.6875 15.4688C42.6875 16.244 42.0565 16.875 41.2812 16.875Z" fill="#C4C4C4"/>
</svg>
