<svg width="48" height="48" viewBox="0 0 48 48" fill="none" xmlns="http://www.w3.org/2000/svg">
<g clip-path="url(#clip0)">
<path d="M46.5938 42.2812C47.3705 42.2812 48 41.6517 48 40.875C48 40.0983 47.3705 39.4688 46.5938 39.4688H45.1875V35.25C45.1875 34.4733 44.558 33.8438 43.7812 33.8438H35.25C34.4733 33.8438 33.8438 34.4733 33.8438 35.25V39.4688H32.4375C31.6608 39.4688 31.0312 40.0983 31.0312 40.875C31.0312 41.6517 31.6608 42.2812 32.4375 42.2812H33.8438V45.1875H28.2188V38.6646C33.1293 36.7295 36.6562 31.5172 36.6562 25.4062C36.6562 21.9346 35.5294 18.6508 33.4691 16.0756C33.7207 14.9312 33.8438 13.8373 33.8438 12.75C33.8438 5.71948 29.428 0 24 0C21.9565 0 19.9944 0.797974 18.3527 2.27271C16.7611 0.84082 14.8301 0 12.75 0C7.32202 0 2.90625 5.71948 2.90625 12.75C2.90625 13.8365 3.0293 14.9304 3.28052 16.0737C1.15979 18.7061 0 21.991 0 25.4062C0 31.53 3.56799 36.7515 8.53125 38.6766V45.1875H1.40625C0.629517 45.1875 0 45.817 0 46.5938C0 47.3705 0.629517 48 1.40625 48H46.5938C47.3705 48 48 47.3705 48 46.5938C48 45.817 47.3705 45.1875 46.5938 45.1875H45.1875V42.2812H46.5938ZM36.6562 36.6562H42.375V39.4688H36.6562V36.6562ZM25.4062 45.1875H22.5938V39.3805C23.0592 39.438 23.5287 39.4688 24 39.4688C24.4753 39.4688 24.9445 39.4384 25.4062 39.3816V45.1875ZM18.3691 38.0043C18.8276 38.257 19.2993 38.4774 19.7812 38.666V45.1875H16.9688V38.6646C17.4496 38.4749 17.9169 38.2544 18.3691 38.0043ZM28.8365 5.58582C30.252 7.49451 31.0312 10.0386 31.0312 12.75C31.0312 14.4313 30.6859 15.5552 30.5687 16.125C30.3087 17.3881 29.6272 18.8134 28.8413 19.8611C28.3751 20.4825 28.5011 21.364 29.1226 21.8298C29.7477 22.299 30.6281 22.166 31.0913 21.5486C31.5688 20.9121 31.9926 20.2101 32.3562 19.4597C33.3252 21.2267 33.8438 23.269 33.8438 25.4062C33.8438 31.6095 29.428 36.6562 24 36.6562C22.9622 36.6562 21.9335 36.4673 20.955 36.104C23.677 33.5226 25.4062 29.6847 25.4062 25.4062C25.4062 21.9346 24.2794 18.6508 22.2191 16.0756C22.4707 14.9312 22.5938 13.8373 22.5938 12.75C22.5938 9.5625 21.6859 6.64417 20.1877 4.40662C21.323 3.37244 22.6476 2.8125 24 2.8125C25.793 2.8125 27.5105 3.79724 28.8365 5.58582ZM2.8125 25.4062C2.8125 23.2914 3.36035 21.2391 4.38354 19.4377C4.74939 20.1962 5.17676 20.9059 5.65869 21.5486C6.12231 22.1667 7.00342 22.2982 7.62744 21.8298C8.2489 21.364 8.37488 20.4825 7.90869 19.8611C7.17261 18.88 6.59436 17.6865 6.21936 16.3832C6.20398 15.999 5.71875 14.7144 5.71875 12.75C5.71875 10.0386 6.49805 7.49451 7.91345 5.58582C9.2395 3.79724 10.957 2.8125 12.75 2.8125C14.543 2.8125 16.2605 3.79724 17.5865 5.58582C19.002 7.49451 19.7812 10.0386 19.7812 12.75C19.7812 13.0569 19.7673 13.366 19.7428 13.6776C17.6887 12.1593 15.2783 11.3438 12.75 11.3438C11.9733 11.3438 11.3438 11.9733 11.3438 12.75C11.3438 13.5267 11.9733 14.1562 12.75 14.1562C15.3237 14.1562 17.7543 15.2845 19.6022 17.3342C19.6135 17.3481 19.6245 17.3617 19.6362 17.3752C21.5435 19.511 22.5938 22.363 22.5938 25.4062C22.5938 31.6095 18.178 36.6562 12.75 36.6562C7.19641 36.6562 2.8125 31.5238 2.8125 25.4062ZM11.3438 39.3827C11.8055 39.4391 12.2747 39.4688 12.75 39.4688C13.2253 39.4688 13.6945 39.4384 14.1562 39.3816V45.1875H11.3438V39.3827ZM42.375 45.1875H36.6562V42.2812H42.375V45.1875Z" fill="#C4C4C4"/>
</g>
<defs>
<clipPath id="clip0">
<rect width="48" height="48" fill="white"/>
</clipPath>
</defs>
</svg>
